HIERARCHY
ROOT Root
{
  OFFSET 0.0 0.0 0.0
  CHANNELS 6 Xposition Yposition Zposition Zrotation Yrotation Xrotation
  JOINT Hips
  {
    OFFSET 0.0 100.0 0.0
    CHANNELS 6 Xposition Yposition Zposition Zrotation Yrotation Xrotation
    JOINT Spine1
    {
      OFFSET 5.003913 -0.037094 -0.013727
      CHANNELS 3 Zrotation Yrotation Xrotation
      JOINT Spine2
      {
        OFFSET 7.125363 -1e-06 0.0
        CHANNELS 3 Zrotation Yrotation Xrotation
        JOINT Chest
        {
          OFFSET 7.594027 1e-06 0.0
          CHANNELS 3 Zrotation Yrotation Xrotation
          JOINT Neck1
          {
            OFFSET 26.313086 -0.460272 -0.181672
            CHANNELS 3 Zrotation Yrotation Xrotation
            JOINT Neck2
            {
              OFFSET 8.045911 0.0 0.0
              CHANNELS 3 Zrotation Yrotation Xrotation
              JOINT Head
              {
                OFFSET 6.432774 0.0 0.0
                CHANNELS 3 Zrotation Yrotation Xrotation
                JOINT HeadEnd
                {
                  OFFSET 16.169773 0.06451 0.00362
                  CHANNELS 3 Zrotation Yrotation Xrotation
                }
                JOINT Jaw
                {
                  OFFSET 0.108741 3.12938 0.002639
                  CHANNELS 3 Zrotation Yrotation Xrotation
                }
                JOINT LeftEye
                {
                  OFFSET 4.45173 8.166359 3.206392
                  CHANNELS 3 Zrotation Yrotation Xrotation
                }
                JOINT RightEye
                {
                  OFFSET 4.436895 8.135758 -3.222429
                  CHANNELS 3 Zrotation Yrotation Xrotation
                }
              }
            }
          }
          JOINT LeftShoulder
          {
            OFFSET 23.218927 5.195579 1.621656
            CHANNELS 3 Zrotation Yrotation Xrotation
            JOINT LeftArm
            {
              OFFSET 15.902118 2e-06 -2e-06
              CHANNELS 3 Zrotation Yrotation Xrotation
              JOINT LeftForeArm
              {
                OFFSET 28.739307 0.0 -1e-06
                CHANNELS 3 Zrotation Yrotation Xrotation
                JOINT LeftHand
                {
                  OFFSET 27.093981 -4e-06 0.0
                  CHANNELS 3 Zrotation Yrotation Xrotation
                  JOINT LeftHandThumb1
                  {
                    OFFSET 2.276781 3.380274 0.83384
                    CHANNELS 3 Zrotation Yrotation Xrotation
                    JOINT LeftHandThumb2
                    {
                      OFFSET 4.705309 -1e-06 -1e-06
                      CHANNELS 3 Zrotation Yrotation Xrotation
                      JOINT LeftHandThumb3
                      {
                        OFFSET 2.798515 0.0 3e-06
                        CHANNELS 3 Zrotation Yrotation Xrotation
                        JOINT LeftHandThumbEnd
                        {
                          OFFSET 3.180793 4e-06 -4e-06
                          CHANNELS 3 Zrotation Yrotation Xrotation
                        }
                      }
                    }
                  }
                  JOINT LeftHandIndex1
                  {
                    OFFSET 3.247786 2.352677 0.137192
                    CHANNELS 3 Zrotation Yrotation Xrotation
                    JOINT LeftHandIndex2
                    {
                      OFFSET 6.367095 1e-06 0.0
                      CHANNELS 3 Zrotation Yrotation Xrotation
                      JOINT LeftHandIndex3
                      {
                        OFFSET 3.662364 0.0 0.0
                        CHANNELS 3 Zrotation Yrotation Xrotation
                        JOINT LeftHandIndex4
                        {
                          OFFSET 2.329242 4e-06 -4e-06
                          CHANNELS 3 Zrotation Yrotation Xrotation
                          JOINT LeftHandIndexEnd
                          {
                            OFFSET 2.767823 1e-06 0.0
                            CHANNELS 3 Zrotation Yrotation Xrotation
                          }
                        }
                      }
                    }
                  }
                  JOINT LeftHandMiddle1
                  {
                    OFFSET 3.163612 0.945023 -0.406112
                    CHANNELS 3 Zrotation Yrotation Xrotation
                    JOINT LeftHandMiddle2
                    {
                      OFFSET 6.276789 3e-06 0.0
                      CHANNELS 3 Zrotation Yrotation Xrotation
                      JOINT LeftHandMiddle3
                      {
                        OFFSET 4.35652 -1e-06 4e-06
                        CHANNELS 3 Zrotation Yrotation Xrotation
                        JOINT LeftHandMiddle4
                        {
                          OFFSET 2.996877 0.0 8e-06
                          CHANNELS 3 Zrotation Yrotation Xrotation
                          JOINT LeftHandMiddleEnd
                          {
                            OFFSET 2.323256 3e-06 -4e-06
                            CHANNELS 3 Zrotation Yrotation Xrotation
                          }
                        }
                      }
                    }
                  }
                  JOINT LeftHandRing1
                  {
                    OFFSET 2.882606 -0.309162 0.107445
                    CHANNELS 3 Zrotation Yrotation Xrotation
                    JOINT LeftHandRing2
                    {
                      OFFSET 6.033198 0.0 4e-06
                      CHANNELS 3 Zrotation Yrotation Xrotation
                      JOINT LeftHandRing3
                      {
                        OFFSET 4.350578 3e-06 0.0
                        CHANNELS 3 Zrotation Yrotation Xrotation
                        JOINT LeftHandRing4
                        {
                          OFFSET 2.651321 2e-06 -7e-06
                          CHANNELS 3 Zrotation Yrotation Xrotation
                          JOINT LeftHandRingEnd
                          {
                            OFFSET 1.937663 1e-06 -4e-06
                            CHANNELS 3 Zrotation Yrotation Xrotation
                          }
                        }
                      }
                    }
                  }
                  JOINT LeftHandPinky1
                  {
                    OFFSET 2.865315 -1.525436 0.575687
                    CHANNELS 3 Zrotation Yrotation Xrotation
                    JOINT LeftHandPinky2
                    {
                      OFFSET 5.54936 1e-06 -8e-06
                      CHANNELS 3 Zrotation Yrotation Xrotation
                      JOINT LeftHandPinky3
                      {
                        OFFSET 3.070974 0.0 -4e-06
                        CHANNELS 3 Zrotation Yrotation Xrotation
                        JOINT LeftHandPinky4
                        {
                          OFFSET 1.549672 1e-06 0.0
                          CHANNELS 3 Zrotation Yrotation Xrotation
                          JOINT LeftHandPinkyEnd
                          {
                            OFFSET 1.952123 0.0 0.0
                            CHANNELS 3 Zrotation Yrotation Xrotation
                          }
                        }
                      }
                    }
                  }
                }
              }
            }
          }
          JOINT RightShoulder
          {
            OFFSET 23.161716 5.296122 -1.380114
            CHANNELS 3 Zrotation Yrotation Xrotation
            JOINT RightArm
            {
              OFFSET -16.027195 -2e-06 1.1e-05
              CHANNELS 3 Zrotation Yrotation Xrotation
              JOINT RightForeArm
              {
                OFFSET -28.736639 4e-06 2e-06
                CHANNELS 3 Zrotation Yrotation Xrotation
                JOINT RightHand
                {
                  OFFSET -27.133619 6e-06 0.0
                  CHANNELS 3 Zrotation Yrotation Xrotation
                  JOINT RightHandThumb1
                  {
                    OFFSET -2.274328 -3.351035 -0.83067
                    CHANNELS 3 Zrotation Yrotation Xrotation
                    JOINT RightHandThumb2
                    {
                      OFFSET -4.703594 -3e-06 2e-06
                      CHANNELS 3 Zrotation Yrotation Xrotation
                      JOINT RightHandThumb3
                      {
                        OFFSET -2.794935 -4e-06 -3e-06
                        CHANNELS 3 Zrotation Yrotation Xrotation
                        JOINT RightHandThumbEnd
                        {
                          OFFSET -3.183852 4e-06 1e-06
                          CHANNELS 3 Zrotation Yrotation Xrotation
                        }
                      }
                    }
                  }
                  JOINT RightHandIndex1
                  {
                    OFFSET -3.253496 -2.33755 -0.127667
                    CHANNELS 3 Zrotation Yrotation Xrotation
                    JOINT RightHandIndex2
                    {
                      OFFSET -6.344434 0.0 0.0
                      CHANNELS 3 Zrotation Yrotation Xrotation
                      JOINT RightHandIndex3
                      {
                        OFFSET -3.654871 0.0 -8e-06
                        CHANNELS 3 Zrotation Yrotation Xrotation
                        JOINT RightHandIndex4
                        {
                          OFFSET -2.327586 -1e-06 0.0
                          CHANNELS 3 Zrotation Yrotation Xrotation
                          JOINT RightHandIndexEnd
                          {
                            OFFSET -2.770001 3e-06 8e-06
                            CHANNELS 3 Zrotation Yrotation Xrotation
                          }
                        }
                      }
                    }
                  }
                  JOINT RightHandMiddle1
                  {
                    OFFSET -3.168223 -0.944764 0.411762
                    CHANNELS 3 Zrotation Yrotation Xrotation
                    JOINT RightHandMiddle2
                    {
                      OFFSET -6.266691 -1e-06 -4e-06
                      CHANNELS 3 Zrotation Yrotation Xrotation
                      JOINT RightHandMiddle3
                      {
                        OFFSET -4.348901 0.0 0.0
                        CHANNELS 3 Zrotation Yrotation Xrotation
                        JOINT RightHandMiddle4
                        {
                          OFFSET -3.00024 2e-06 -4e-06
                          CHANNELS 3 Zrotation Yrotation Xrotation
                          JOINT RightHandMiddleEnd
                          {
                            OFFSET -2.321477 -4e-06 -4e-06
                            CHANNELS 3 Zrotation Yrotation Xrotation
                          }
                        }
                      }
                    }
                  }
                  JOINT RightHandRing1
                  {
                    OFFSET -2.885654 0.293261 -0.119232
                    CHANNELS 3 Zrotation Yrotation Xrotation
                    JOINT RightHandRing2
                    {
                      OFFSET -6.032835 -1e-06 -4e-06
                      CHANNELS 3 Zrotation Yrotation Xrotation
                      JOINT RightHandRing3
                      {
                        OFFSET -4.33881 0.0 -4e-06
                        CHANNELS 3 Zrotation Yrotation Xrotation
                        JOINT RightHandRing4
                        {
                          OFFSET -2.654903 -4e-06 -4e-06
                          CHANNELS 3 Zrotation Yrotation Xrotation
                          JOINT RightHandRingEnd
                          {
                            OFFSET -1.935122 0.0 4e-06
                            CHANNELS 3 Zrotation Yrotation Xrotation
                          }
                        }
                      }
                    }
                  }
                  JOINT RightHandPinky1
                  {
                    OFFSET -2.866241 1.503904 -0.60527
                    CHANNELS 3 Zrotation Yrotation Xrotation
                    JOINT RightHandPinky2
                    {
                      OFFSET -5.553177 -2e-06 0.0
                      CHANNELS 3 Zrotation Yrotation Xrotation
                      JOINT RightHandPinky3
                      {
                        OFFSET -3.062664 -1e-06 -4e-06
                        CHANNELS 3 Zrotation Yrotation Xrotation
                        JOINT RightHandPinky4
                        {
                          OFFSET -1.546529 2e-06 4e-06
                          CHANNELS 3 Zrotation Yrotation Xrotation
                          JOINT RightHandPinkyEnd
                          {
                            OFFSET -1.952341 0.0 -4e-06
                            CHANNELS 3 Zrotation Yrotation Xrotation
                          }
                        }
                      }
                    }
                  }
                }
              }
            }
          }
        }
      }
    }
    JOINT LeftLeg
    {
      OFFSET -8.443107 2.567604 10.043214
      CHANNELS 3 Zrotation Yrotation Xrotation
      JOINT LeftShin
      {
        OFFSET 43.229198 1e-06 -1e-06
        CHANNELS 3 Zrotation Yrotation Xrotation
        JOINT LeftFoot
        {
          OFFSET 42.298611 1e-06 1e-06
          CHANNELS 3 Zrotation Yrotation Xrotation
          JOINT LeftToeBase
          {
            OFFSET 14.165858 1e-06 0.0
            CHANNELS 3 Zrotation Yrotation Xrotation
            JOINT LeftToeEnd
            {
              OFFSET 6.7141 -0.234461 0.0
              CHANNELS 3 Zrotation Yrotation Xrotation
            }
          }
        }
      }
    }
    JOINT RightLeg
    {
      OFFSET -8.303923 2.592729 -10.047278
      CHANNELS 3 Zrotation Yrotation Xrotation
      JOINT RightShin
      {
        OFFSET -43.369682 0.0 1e-06
        CHANNELS 3 Zrotation Yrotation Xrotation
        JOINT RightFoot
        {
          OFFSET -42.260784 4e-06 2e-06
          CHANNELS 3 Zrotation Yrotation Xrotation
          JOINT RightToeBase
          {
            OFFSET -14.222245 -2e-06 -1e-06
            CHANNELS 3 Zrotation Yrotation Xrotation
            JOINT RightToeEnd
            {
              OFFSET -6.660062 0.232574 -2e-06
              CHANNELS 3 Zrotation Yrotation Xrotation
            }
          }
        }
      }
    }
  }
}
MOTION
Frames: 4
Frame Time: 0.03333333333333333
0.0 0.0 0.0 0.0 -0.0 0.0 -2.874456 97.685699 -4.322335 89.405342 3.22925 89.476967 3.205593 1.452812 -0.335149 -9.936238 -0.547993 -0.129762 15.270226 -0.229184 -3.044195 14.904984 -3.982961 2.553102 -2.430288 -0.697391 -1.127028 -41.985268 -1.083834 -1.513719 6e-06 0.0 -0.0 0.100511 -0.007833 -0.079378 0.201582 -0.100714 -0.105991 0.161569 0.077432 -0.046946 -110.574524 -75.785431 129.004761 27.346697 -45.627972 16.449783 33.541321 -0.129847 0.230407 -0.785822 -5.401072 24.638285 17.636627 -26.322733 52.41119 -19.46666 -14.395596 29.410393 0.0 -8.774821 -3e-06 15.911621 -17.54303 6.083381 -0.609776 -1.795653 -3.889328 -4.807087 -11.04681 -2.937852 3e-06 -20.976015 1e-06 -5.01997 -25.033556 -4.031878 6e-06 -1e-06 -0.0 -10.634533 -5.686971 -3.565588 10.573272 -17.922947 -3.1139 3e-06 -13.821205 3e-06 -0.501776 -31.181498 -4.027019 -11.357793 -60.136997 7.381629 -13.982712 -7.150198 -2.875042 13.772729 -8.401489 -3.218241 0.347733 -34.211544 0.771654 -0.963027 -17.733366 2.621018 -0.0 -0.0 -1e-06 -17.346416 -20.095217 -4.201782 21.757555 -1.638373 3.866428 1e-06 -6.338823 0.0 -1.697589 -22.591747 -6.194008 -0.0 -3e-06 -2e-06 76.041183 -80.261063 123.497734 28.403687 -52.409012 14.593081 33.538345 0.061672 -0.064252 -2.058712 2.327003 6.68294 22.18211 -20.375898 49.933327 -16.701807 -16.743528 28.476528 -2e-06 -12.6906 1e-06 16.484741 -17.501471 2.228736 -0.10592 -1.513857 -4.275881 -5.039041 -5.612871 -2.95356 3e-06 -11.020523 0.0 -6.111299 -15.895332 -3.84047 -0.0 -0.0 -1e-06 -10.283371 -5.680289 -4.341836 11.028292 -11.302405 -2.372635 -1.38427 -14.238581 -6.320122 -0.62544 -26.924194 -3.827599 -3.894445 -49.623581 -4.110321 -13.708524 -7.363476 -3.720942 18.141146 -14.052737 -3.242673 3e-06 -18.78727 0.0 -0.429713 -8.456044 2.555504 -1e-06 -1e-06 -1e-06 -15.923536 -20.094484 -5.473581 30.419207 -7.190824 1.735925 1e-06 -8.162927 -1e-06 -1.8619 -22.861469 -6.167944 -0.0 -1e-06 -2e-06 159.228577 -5.617974 -9.909966 13.500692 0.052963 0.072609 -65.244644 1.481383 -8.969608 -9.785262 1.686526 2.064813 -0.999999 1e-06 0.0 9.088185 0.496085 -12.735991 21.468307 -0.116304 0.064539 -88.093948 7.722005 -1.303217 -8.743027 0.715889 1.650878 -1.000002 -0.0 -0.0 
0.0 0.0 0.0 0.0 -0.0 0.0 -2.301751 97.654541 -2.301365 89.396523 3.044146 88.001015 2.990009 1.122342 -0.347633 -9.982299 -0.542212 -0.078243 15.343424 -0.283625 -3.153163 14.631754 -4.114575 2.617409 -2.431059 -0.728786 -0.968765 -41.630184 -1.06129 -1.42868 6e-06 0.0 0.0 0.094763 -0.012774 -0.085278 0.19662 -0.106256 -0.118759 0.164103 0.072703 -0.048334 -111.031799 -75.472809 129.552856 27.099106 -45.362103 15.872766 34.032803 -0.320771 0.236578 -0.479883 -5.29329 24.523293 17.636635 -26.322733 52.411194 -19.466665 -14.395598 29.410389 -1e-06 -8.774822 -1e-06 15.938904 -17.661617 6.08914 -0.609777 -1.795653 -3.889327 -4.807087 -11.046812 -2.937852 5e-06 -20.976019 1e-06 -5.019969 -25.03356 -4.031882 5e-06 -2e-06 0.0 -10.634535 -5.68697 -3.565588 10.573275 -17.922953 -3.1139 4e-06 -13.821209 0.0 -0.501776 -31.181505 -4.027016 -11.470297 -60.147984 7.529566 -13.982714 -7.150198 -2.875043 13.772731 -8.401493 -3.218241 0.347734 -34.211555 0.771655 -0.963027 -17.73337 2.621021 -0.0 1e-06 -1e-06 -17.34642 -20.095221 -4.20178 21.757561 -1.638376 3.866429 1e-06 -6.338825 1e-06 -1.697589 -22.591751 -6.194008 0.0 -3e-06 -3e-06 74.73082 -80.026772 124.826134 27.893064 -52.339581 15.045481 33.010849 0.20122 0.036941 -1.927843 2.281739 7.027019 22.18211 -20.375891 49.933304 -16.701809 -16.743528 28.47653 -2e-06 -12.690599 -1e-06 16.508871 -17.52125 2.181386 -0.10592 -1.513855 -4.275884 -5.03904 -5.612871 -2.953556 3e-06 -11.020523 -3e-06 -6.111297 -15.89533 -3.840468 -1e-06 -0.0 -0.0 -10.283368 -5.68029 -4.34184 11.028291 -11.302402 -2.37263 -1.38427 -14.238579 -6.320119 -0.62544 -26.924187 -3.827599 -3.881516 -49.661846 -4.063127 -13.708521 -7.363478 -3.720941 18.141146 -14.052736 -3.242673 6e-06 -18.787266 -4e-06 -0.429712 -8.456043 2.555501 -1e-06 -1e-06 1e-06 -15.923532 -20.094482 -5.473586 30.419205 -7.190822 1.735925 1e-06 -8.162925 -0.0 -1.8619 -22.861467 -6.167943 -2e-06 -2e-06 -2e-06 160.538391 -5.551615 -9.69972 11.72432 0.064387 0.072133 -62.83852 1.342949 -7.357896 -9.948365 1.690889 2.099418 -0.999999 -0.0 0.0 9.831616 -0.420479 -12.465269 22.236933 -0.112097 0.108427 -87.002487 8.984621 -1.548944 -9.78285 0.747217 1.651477 -1.000002 0.0 -0.0 
0.0 0.0 0.0 0.0 -0.0 0.0 -1.642785 97.671463 -0.363539 89.821442 2.78739 86.407806 2.638466 0.439949 -0.29694 -10.139524 -0.585699 -0.168997 15.559518 -0.439935 -3.177353 14.287044 -4.221467 2.825325 -2.432583 -0.710653 -0.906239 -41.255169 -1.103084 -1.279 6e-06 0.0 0.0 0.09469 0.018406 -0.033679 0.205133 -0.076153 -0.066238 0.189077 0.103359 0.00134 -112.794083 -75.140137 131.337265 26.46386 -44.872738 16.166977 34.927376 -0.206091 0.163827 0.133947 -5.105389 23.749548 17.636625 -26.322729 52.411171 -19.466654 -14.395597 29.410378 -0.0 -8.77482 -2e-06 16.083084 -17.763887 6.12866 -0.609776 -1.795653 -3.889327 -4.807088 -11.046811 -2.93785 3e-06 -20.976019 4e-06 -5.01997 -25.03356 -4.03188 6e-06 -1e-06 0.0 -10.634531 -5.686969 -3.565585 10.573271 -17.922947 -3.113899 3e-06 -13.821206 1e-06 -0.50178 -31.181498 -4.027011 -11.635126 -60.047962 7.779445 -13.982712 -7.150198 -2.875039 13.772727 -8.40149 -3.21824 0.347732 -34.211555 0.771656 -0.96303 -17.73337 2.621019 0.0 2e-06 1e-06 -17.346416 -20.095215 -4.201779 21.757557 -1.638374 3.866427 2e-06 -6.338823 1e-06 -1.69759 -22.591747 -6.194006 -0.0 -4e-06 -2e-06 72.700966 -79.662201 126.81028 27.294674 -52.043041 15.674883 32.79702 0.232208 0.031131 -1.808022 2.657917 7.072401 22.182116 -20.375889 49.933308 -16.701818 -16.74353 28.47653 -3e-06 -12.690601 -0.0 16.427395 -17.384304 2.140564 -0.10592 -1.513857 -4.275882 -5.039041 -5.612871 -2.953554 4e-06 -11.020527 -3e-06 -6.111299 -15.895336 -3.840469 0.0 0.0 -0.0 -10.283371 -5.680288 -4.341837 11.028296 -11.302407 -2.372635 -1.384268 -14.238583 -6.320121 -0.625437 -26.924191 -3.827603 -3.723809 -49.541965 -4.14446 -13.708525 -7.363475 -3.720934 18.141151 -14.052741 -3.242678 8e-06 -18.787271 -3e-06 -0.429712 -8.456047 2.555506 -1e-06 -1e-06 -1e-06 -15.923536 -20.094484 -5.473581 30.419214 -7.190826 1.735925 3e-06 -8.162927 -3e-06 -1.861902 -22.861475 -6.167945 1e-06 -1e-06 -4e-06 162.021881 -5.012826 -9.842818 9.992228 0.08885 0.153415 -58.546108 0.313685 -5.678252 -9.802618 1.693821 2.081671 -0.999999 -0.0 0.0 10.096402 -2.05711 -12.389246 23.630684 -0.100257 0.234146 -85.675194 10.706985 -1.848049 -11.601876 0.791355 1.647112 -1.000002 -0.0 -0.0 
0.0 0.0 0.0 0.0 -0.0 0.0 -1.000861 97.849297 1.657244 90.269096 2.667228 84.924316 2.353432 -0.163042 -0.280326 -10.229818 -0.607715 -0.12642 15.70974 -0.730061 -3.238009 14.000865 -4.288616 2.864558 -2.50081 -0.728074 -0.518909 -41.044533 -1.210011 -1.076852 5e-06 -0.0 0.0 0.087986 0.050849 -0.006618 0.154365 -0.060574 -0.051349 0.145056 0.14955 0.037967 -113.243599 -74.942551 131.653961 26.102158 -44.787003 16.433031 35.732269 -0.073826 0.22181 0.869415 -4.902125 23.183453 17.636627 -26.322725 52.411179 -19.46666 -14.395594 29.410385 -0.0 -8.774821 -3e-06 16.102377 -17.897966 6.036122 -0.609777 -1.795653 -3.889328 -4.807087 -11.046811 -2.937848 4e-06 -20.976015 1e-06 -5.019969 -25.033554 -4.031882 7e-06 -0.0 -1e-06 -10.634532 -5.686969 -3.565587 10.573272 -17.922951 -3.1139 3e-06 -13.821208 0.0 -0.501777 -31.181501 -4.027015 -11.697773 -59.968708 7.70888 -13.982712 -7.150196 -2.875043 13.772727 -8.401491 -3.218239 0.347735 -34.211544 0.771653 -0.963029 -17.733366 2.621019 0.0 2e-06 1e-06 -17.346413 -20.095217 -4.20178 21.757555 -1.638374 3.866428 1e-06 -6.338823 2e-06 -1.697588 -22.591747 -6.194008 -0.0 -5e-06 -2e-06 72.023346 -79.528847 127.233627 26.675022 -52.306595 16.729874 32.746185 0.509181 -0.021053 -1.802688 2.716036 6.97011 22.18211 -20.375887 49.933308 -16.701805 -16.743525 28.476519 -2e-06 -12.690598 1e-06 16.47913 -17.419577 2.164074 -0.105919 -1.513855 -4.275881 -5.03904 -5.612869 -2.953556 3e-06 -11.02052 0.0 -6.111298 -15.895329 -3.840471 -0.0 0.0 1e-06 -10.283369 -5.680287 -4.341839 11.028291 -11.302401 -2.372634 -1.384271 -14.238577 -6.320117 -0.625443 -26.924181 -3.827599 -3.687583 -49.53281 -4.201189 -13.708522 -7.363476 -3.72094 18.141146 -14.052734 -3.242675 3e-06 -18.787264 1e-06 -0.429712 -8.456044 2.555504 -1e-06 0.0 -1e-06 -15.923536 -20.094481 -5.473586 30.419207 -7.190824 1.735932 2e-06 -8.162921 -1e-06 -1.861903 -22.861464 -6.167941 0.0 -1e-06 -2e-06 163.443054 -4.528876 -10.970272 9.222942 0.081804 0.073143 -57.177422 -0.292409 -4.320774 -8.840524 1.6684 2.079821 -1.0 0.0 0.0 10.737307 -3.66767 -12.276476 24.560102 -0.115221 0.262891 -83.045616 12.660639 -1.766245 -13.536599 0.87991 1.648076 -1.000003 -0.0 0.0 
